<svg xmlns="http://www.w3.org/2000/svg" viewBox="62.62626262626263 146.8 57.57575757575758 10" style="max-height: 500px" width="57.57575757575758" height="10">
  <path transform="translate(100 100)" d="M40.7,-63.6C49.9,-57.5,52.5,-41.3,47.9,-28.6C43.2,-15.9,31.2,-6.5,30.8,5.3C30.4,17.1,41.5,31.3,41.3,40.9C41,50.5,29.4,55.5,18.4,55.4C7.4,55.3,-2.9,50.3,-18.3,51C-33.6,51.6,-53.9,58,-65.1,52.4C-76.3,46.8,-78.3,29.1,-70.3,16.4C-62.3,3.7,-44.3,-4.2,-38.3,-17.5C-32.2,-30.8,-38,-49.5,-33.6,-57.8C-29.2,-66.1,-14.6,-63.9,0.6,-64.8C15.8,-65.7,31.5,-69.7,40.7,-63.6Z" fill="#FFFFFF"/>
</svg>