<svg xmlns="http://www.w3.org/2000/svg" viewBox="70.6 147.2 56.99999999999999 15.6" style="max-height: 500px" width="56.99999999999999" height="15.6">
  <path transform="translate(100 100)" d="M40.1,-60.8C47.8,-57.4,46.9,-39.3,46.5,-25.5C46.1,-11.8,46,-2.6,49.6,10.7C53.2,23.9,60.4,41.2,55.8,50.6C51.2,59.9,34.8,61.2,21.3,58.9C7.8,56.7,-2.7,51,-17.4,50.6C-32.1,50.3,-50.9,55.3,-57.9,49.1C-64.9,42.9,-60,25.4,-59.3,10.4C-58.6,-4.7,-61.9,-17.2,-61.7,-32.5C-61.5,-47.8,-57.6,-65.7,-46.7,-67.5C-35.8,-69.4,-17.9,-55.2,-0.9,-53.8C16.2,-52.5,32.4,-64.1,40.1,-60.8Z" fill="#000000"/>
</svg>